PathFileType	4	(X/Y/Z)	SUBJ89_1_walk_RCNL2025.trc
DataRate	CameraRate	NumFrames	NumMarkers	Units	OrigDataRate	OrigDataStartFrame	OrigNumFrames
100	100	8	25	mm	100	152	243
Frame#	Time	R_Shoulder			L_Shoulder			C7			J_Notch			R_Elbow			L_Elbow			R_Wrist			L_Wrist			R_Asis			L_Asis			Sacral			Thoracic			Sternum			R_Thigh_Lateral			R_Knee_Lateral			R_Shank_Lateral			R_Ankle_Lateral			R_Heel			R_Toe			L_Thigh_Lateral			L_Knee_Lateral			L_Shank_Lateral			L_Ankle_Lateral			L_Heel			L_Toe		
		X1	Y1	Z1	X2	Y2	Z2	X3	Y3	Z3	X4	Y4	Z4	X5	Y5	Z5	X6	Y6	Z6	X7	Y7	Z7	X8	Y8	Z8	X9	Y9	Z9	X10	Y10	Z10	X11	Y11	Z11	X12	Y12	Z12	X13	Y13	Z13	X14	Y14	Z14	X15	Y15	Z15	X16	Y16	Z16	X17	Y17	Z17	X18	Y18	Z18	X19	Y19	Z19	X20	Y20	Z20	X21	Y21	Z21	X22	Y22	Z22	X23	Y23	Z23	X24	Y24	Z24	X25	Y25	Z25
152	1.51000000	179.101425	1377.993164	438.969147	181.628647	1417.576294	30.610374	109.415085	1488.202637	242.903534	231.488480	1365.202026	233.967957	68.515587	1057.249512	459.389099	212.042297	1080.285889	-30.000139	129.758980	794.121277	474.212708	408.318878	898.433685	6.371336	217.454407	981.832092	335.767059	222.607056	960.998230	98.678749	52.249386	1029.362671	221.004364	28.574408	1313.317383	222.474747	265.924347	1218.487549	215.659607	271.504944	611.628418	394.066711	305.802521	501.417450	335.119568	302.249451	275.727844	373.781006	291.669525	69.865547	297.121216	253.163254	61.388432	251.534851	452.931915	37.239658	281.262085	139.860977	533.446838	10.931511	109.826027	453.047668	82.917824	-90.408524	325.754822	52.793507	-233.987564	193.387405	127.520096	-244.516083	225.329346	179.746002	-182.577423	48.142975	140.296219
153	1.52000000	194.653229	1380.355225	439.324005	195.392517	1420.088623	30.964056	123.903198	1490.654663	243.610001	245.904251	1367.618042	234.108582	85.424805	1059.157349	460.017273	221.880173	1081.820557	-28.234169	147.920258	796.340607	474.419403	417.628479	898.721863	5.412209	231.980667	984.086182	336.353271	237.085205	963.881470	99.310242	66.500061	1031.637451	221.924377	43.670448	1315.605835	222.916946	280.106537	1220.873535	215.528046	279.904205	611.336792	394.200897	313.429871	501.110168	335.139313	305.645721	275.473846	373.590729	292.096222	70.102539	296.710541	253.416870	61.634335	251.365189	453.367126	37.078342	281.147919	163.509201	535.192383	9.538093	137.296295	454.402740	81.256195	-64.441780	330.336334	52.535114	-209.672836	200.440613	127.920059	-218.577957	231.618088	180.983658	-160.674545	53.961285	135.345413
154	1.53000000	210.089554	1382.838257	439.629913	208.793259	1422.507446	31.120718	138.267609	1493.185669	244.226334	260.151794	1370.092773	234.153824	102.317993	1061.145752	460.730774	231.492691	1083.334961	-26.654022	166.377968	798.716827	474.585526	426.548935	898.898743	4.324206	246.439224	986.131714	336.712799	251.125122	966.849854	99.593414	80.615250	1034.016602	222.918808	58.458618	1317.991211	223.599731	294.097504	1223.295410	215.338745	287.742920	611.090271	394.413971	320.250397	500.762177	335.259766	308.676270	275.179413	373.545593	292.386597	70.306038	296.482971	253.611115	61.831261	251.323395	453.596649	37.042183	281.108887	186.716949	537.495728	8.189185	164.833435	456.444244	79.682625	-37.744869	334.727478	52.444530	-183.928833	206.419815	128.570160	-191.652206	236.517654	182.454025	-135.206680	59.960938	129.874603
155	1.54000000	225.405319	1385.419800	439.899323	221.877518	1424.853271	31.117947	152.517471	1495.760010	244.773987	274.261719	1372.606323	234.134750	119.203964	1063.192261	461.528961	240.943710	1084.879028	-25.282076	185.109528	801.224426	474.701599	435.085220	898.972046	3.134251	260.810303	988.042358	336.892883	264.798218	969.839844	99.608635	94.623039	1036.476318	223.923737	72.871712	1320.454590	224.564758	307.939728	1225.740967	215.120636	295.362732	611.036621	394.681000	326.429718	500.431000	335.427094	311.656525	274.890869	373.577301	292.599182	70.484230	296.412201	253.771286	62.002926	251.397949	453.692871	37.068474	281.120758	209.658035	540.334412	6.910666	192.366806	459.147980	78.196304	-10.473277	338.919281	52.487530	-156.841827	211.139618	129.316742	-163.808304	239.973297	183.970673	-106.683243	65.680191	124.297958
156	1.55000000	240.600540	1388.077148	440.138336	234.699356	1427.146729	30.999681	166.656570	1498.333130	245.267517	288.262024	1375.132080	234.072128	136.089355	1065.278687	462.408356	250.279663	1086.493896	-24.132780	204.093651	803.843719	474.759460	443.232910	898.953339	1.867507	275.069580	989.877991	336.966339	278.229370	972.814270	99.469147	108.545593	1038.981201	224.894363	86.896713	1322.960693	225.802277	321.675964	1228.194092	214.891220	302.950409	611.205688	394.955444	332.098175	500.133087	335.577820	314.736145	274.639130	373.605499	292.779633	70.643600	296.447632	253.912613	62.168640	251.548431	453.711761	37.107361	281.163025	232.503159	543.643127	5.725162	219.831528	462.431549	76.805161	17.255537	342.808136	52.589703	-128.502304	214.455704	129.999802	-135.115616	241.981552	185.326447	-75.618858	70.714653	119.042381
157	1.56000000	255.680954	1390.782959	440.346893	247.315506	1429.400146	30.807880	180.686752	1500.858154	245.713379	302.176117	1377.638062	233.975754	152.975739	1067.386475	463.363617	259.524414	1088.198120	-23.209486	223.315155	806.556732	474.752121	450.987701	898.853333	0.544157	289.193481	991.672791	337.013794	291.544128	975.751099	99.293861	122.396484	1041.484253	225.804794	100.600258	1325.456543	227.241180	335.343323	1230.632568	214.658493	310.559021	611.542419	395.181396	337.351410	499.859436	335.653992	317.885925	274.442261	373.569824	292.958923	70.787514	296.526276	254.043579	62.342262	251.719849	453.694336	37.126770	281.219086	255.356979	547.313599	4.654920	247.157837	466.177826	75.525398	45.359215	346.220032	52.659466	-99.007233	216.274033	130.479172	-105.649353	242.573654	186.332367	-42.444138	74.760338	114.471283
158	1.57000000	270.658630	1393.502563	440.519501	259.783478	1431.611450	30.577559	194.612000	1503.289673	246.110275	316.021790	1380.089600	233.847107	169.860413	1069.493408	464.388580	268.678619	1089.983032	-22.503906	242.765717	809.342621	474.670090	458.353058	898.676392	-0.825114	303.165039	993.430603	337.105865	304.831848	978.632446	99.186684	136.181961	1043.931396	226.644043	114.110771	1327.877930	228.768799	348.968842	1233.026245	214.424835	318.157837	611.959106	395.309052	342.259369	499.593048	335.616882	320.955536	274.303986	373.446198	293.155365	70.917145	296.589447	254.172562	62.534256	251.860458	453.669708	37.114491	281.275330	278.245850	551.213989	3.720074	274.268982	470.260315	74.378265	73.792923	348.957703	52.610291	-68.449463	216.549774	130.651733	-75.485260	241.802185	186.850281	-7.480855	77.627670	110.840363
159	1.58000000	285.550995	1396.195312	440.646606	272.160400	1433.762329	30.334154	208.440323	1505.586182	246.451126	329.811737	1382.450439	233.683228	186.739319	1071.571533	465.477203	277.725525	1091.814819	-21.997587	262.440300	812.174957	474.501129	465.343872	898.414978	-2.242270	316.977966	995.126404	337.290253	318.137817	981.437927	99.220955	149.904663	1046.268555	227.410660	127.557663	1330.161865	230.275833	362.568390	1235.339478	214.190704	325.694916	612.374634	395.306885	346.876617	499.321075	335.456055	323.771545	274.213684	373.245758	293.378113	71.033119	296.596466	254.311752	62.754330	251.931564	453.655884	37.072548	281.321564	301.148529	555.221497	2.935481	301.086517	474.560760	73.386230	102.554710	350.839966	52.372505	-36.905693	215.282608	130.459167	-44.687466	239.729340	186.809326	29.039265	79.236885	108.283379
